<svg xmlns="http://www.w3.org/2000/svg" viewBox="0 0 320 96" role="img" aria-labelledby="title">
  <title id="title">Prime Video</title>
  <rect width="320" height="96" rx="12" fill="none"/>
  <g fill="#fff">
    <path d="M42.4 31.5c8.5 0 14.5 6.4 14.5 16.5s-6 16.5-14.5 16.5c-4.4 0-8.1-1.8-10.4-5v16.8H20.5V32.2h10.9v4.4c2.3-3.2 6.2-5.1 11-5.1Zm-2.3 9.5c-4.8 0-8.3 3.7-8.3 9s3.5 9 8.3 9 8.3-3.7 8.3-9-3.5-9-8.3-9Z"/>
    <path d="M83.9 31.6v10.7c-1-.1-1.8-.2-2.6-.2-5.2 0-8.7 2.8-8.7 9v12.8H61.1V32.2H72v4.2c2.3-3.1 6.4-4.8 11.9-4.8Z"/>
    <path d="M87.9 22.6c0-3.6 2.9-6.4 7.2-6.4s7.2 2.6 7.2 6.2c0 3.8-2.9 6.6-7.2 6.6s-7.2-2.8-7.2-6.4Zm1.4 9.6h11.5v31.7H89.3V32.2Z"/>
    <path d="M161 45.8v18.1h-11.5V47.6c0-5-2.2-7.3-5.8-7.3-4 0-6.8 2.6-6.8 8.1v15.5h-11.5V47.6c0-5-2.1-7.3-5.8-7.3-3.9 0-6.8 2.6-6.8 8.1v15.5h-11.5V32.2h11v3.7c2.4-2.8 6-4.3 10.1-4.3 4.6 0 8.5 1.8 10.8 5.4 2.6-3.4 6.8-5.4 11.8-5.4 7.6 0 16 4.4 16 14.2Z"/>
    <path d="M197.6 50.7h-24c.9 4 4.3 6.4 9.2 6.4 3.4 0 5.9-1 8.1-3.1l6.1 6.6c-3.7 4.2-9.2 6.4-14.5 6.4-12.2 0-20.1-7.7-20.1-17.8s8.1-17.7 18.8-17.7 18.4 6.8 18.4 17.8c.1.8 0 1.8 0 1.4Zm-24.2-5.8h13.6c-.6-4-3.2-6.6-6.8-6.6s-6.2 2.5-6.8 6.6Z"/>
    <path d="M218.8 32.2h11.8l8.4 20.5 8.8-20.5h11.1l-13.4 31.7h-11.9l-14.8-31.7Z"/>
    <path d="M261.4 22.6c0-3.6 2.9-6.4 7.2-6.4s7.2 2.6 7.2 6.2c0 3.8-2.9 6.6-7.2 6.6s-7.2-2.8-7.2-6.4Zm1.4 9.6h11.5v31.7h-11.5V32.2Z"/>
    <path d="M312.1 50.7h-24c.9 4 4.3 6.4 9.2 6.4 3.4 0 5.9-1 8.1-3.1l6.1 6.6c-3.7 4.2-9.2 6.4-14.5 6.4-12.2 0-20.1-7.7-20.1-17.8s8.1-17.7 18.8-17.7 18.4 6.8 18.4 17.8c.1.8 0 1.8 0 1.4Zm-24.2-5.8h13.6c-.6-4-3.2-6.6-6.8-6.6s-6.2 2.5-6.8 6.6Z"/>
  </g>
  <path fill="#00a8e1" d="M72.4 76.2c45.8 12.8 100.2 9.5 141-7.7 5.8-2.5 10.6 3.8 5.4 7.5-36 26-101 31.4-145.5 5.7-4.2-2.4-3-6.9-.9-5.5Z"/>
  <path fill="#00a8e1" d="M204.9 68.4c7.5-.9 23.8-2.7 26.7 1 2.9 3.6-3.2 18.7-6 25.3-.9 2-3.7 1-3.1-1.1 1.8-6 5.8-19.4 3.7-22.1-2.1-2.8-16.5-1.4-22.8-.8-2.2.2-2.6-2.1 1.5-2.3Z"/>
</svg>
